# xmcd CD database file
#
# Track frame offsets:
#	150
#	5852
#	22960
#	38452
#	48722
#	64262
#	81148
#	99737
#	110652
#	129358
#	139803
#	157073
#	174260
#	178155
#
# Disc length: 4380 seconds
#
# Revision: 0
# Processed by: cddbd v1.5.2PL0 Copyright (c) Steve Scherf et al.
# Submitted via: CDex 1.51
#
DISCID=bd111a0e
DTITLE=Mister Speed - The Dreamer
DYEAR=2007
DGENRE=New Age
TTITLE0=Unconventional Paradigm
TTITLE1=Art Is...
TTITLE2=Miss Bitty
TTITLE3=The World Song
TTITLE4=Ready For Action
TTITLE5=Everybody Needs Somebody
TTITLE6=You Should Be Dancing
TTITLE7=On The End Of A String
TTITLE8=Nudity
TTITLE9=Can't Get Home (Silent Dub)
TTITLE10=Don't Waste My Time
TTITLE11=The Cities (with Pasobionic)
TTITLE12=Repressive Society
TTITLE13=iCome On!
EXTD=YEAR: 2007
EXTT0=
EXTT1=
EXTT2=
EXTT3=
EXTT4=
EXTT5=
EXTT6=
EXTT7=
EXTT8=
EXTT9=
EXTT10=
EXTT11=
EXTT12=
EXTT13=
PLAYORDER=
